<?xml version="1.0" encoding="utf-8"?>

<svg version="1.1" id="Icons" xmlns="http://www.w3.org/2000/svg" xmlns:xlink="http://www.w3.org/1999/xlink" x="0px" y="0px"
	 viewBox="0 0 32 32" style="enable-background:new 0 0 32 32;" xml:space="preserve">
<style type="text/css">
	.st0{fill:none;stroke:#000000;stroke-width:2;stroke-linecap:round;stroke-linejoin:round;stroke-miterlimit:10;}
	.st1{fill:none;stroke:#000000;stroke-width:2;stroke-linejoin:round;stroke-miterlimit:10;}
</style>
<path class="st0" d="M4.2,27.3l0.5-1c2-3.8,3-7.9,3-12.1v0c0-4.3,3.4-8,7.9-8.2c4.6-0.1,8.4,3.4,8.4,7.8l0,4.9c0,1.4,0.8,2.6,2,3.2
	l0,0"/>
<path class="st0" d="M3.9,14.6C3.9,7.6,9.2,2,15.9,2s12,5.6,12,12.6V18"/>
<path class="st0" d="M7.3,30l0.1-0.2c3.1-5,4.8-10.6,4.8-16.3v0c0-1.8,1.5-3.4,3.5-3.5c2.1-0.1,3.9,1.4,3.9,3.3v0
	c0.4,7.7-3.9,16.6-3.9,16.6"/>
<path class="st0" d="M16,14l-0.2,1.4c-0.6,5-1.9,9.9-3.8,14.6l0,0"/>
</svg>
